PathFileType	4	(X/Y/Z)	OpenSim_Sub05_CSBaseline_Accel.trc
DataRate	CameraRate	NumFrames	NumMarkers	Units	OrigDataRate	OrigDataStartFrame	OrigNumFrames
100	100	27	8	m	100	3959	10557
Frame#	Time	torso_imu_offset_imu	pelvis_imu_offset_imu	tibia_r_imu_offset_imu	femur_r_imu_offset_imu	tibia_l_imu_offset_imu	femur_l_imu_offset_imu	toes_r_imu_offset_imu	toes_l_imu_offset_imu
				X1	Y1	Z1	X2	Y2	Z2	X3	Y3	Z3	X4	Y4	Z4	X5	Y5	Z5	X6	Y6	Z6	X7	Y7	Z7	X8		Y8	Z8	

3959	39.58000000	7.74398369	2.94959772	5.49417746	8.60458277	-0.47322084	3.73228469	12.66552682	-4.02353635	-0.28797332	9.81994329	-0.25853749	5.12497002	8.53787480	-1.78298870	-1.41913486	7.35566021	-3.54618110	-0.48406837	14.83056223	-3.87261171	11.39437770	5.58080522	4.70392937	10.45011887
3960	39.59000000	7.44448037	3.08165441	5.47211804	7.54628454	-0.09298943	3.62579931	11.20979635	0.28052820	-0.11593226	10.30076627	0.84114583	4.76187789	8.77211202	-0.35558896	-1.18168138	8.81602728	-4.67553666	-0.78020030	19.95785172	-4.66839880	10.15441565	5.08251365	3.66455897	10.97369804
3961	39.60000000	7.44590334	3.17465994	5.46740810	7.12920177	-0.58462524	3.61133437	9.55459482	5.60885265	-0.53170745	10.97527641	1.20505049	3.34288926	9.68718496	-0.88009718	-1.26164267	10.14719954	-3.86161779	-1.61082257	17.91662713	-6.03002136	9.09063662	4.48610453	3.26310530	11.50769967
3962	39.61000000	7.79886735	3.19137799	5.53063693	7.43076143	-1.99956766	3.70427568	7.62174337	10.47511249	-1.64911309	11.30196330	0.77990799	2.60863305	10.72407701	-1.61830924	-1.12943639	10.54840787	-2.45467192	-1.69899421	12.63938784	-3.99299826	8.27393977	4.65249929	2.86352209	11.58282642
3963	39.62000000	8.39249933	3.10057634	5.58581869	7.79694398	-3.41739251	3.79407355	6.40663322	14.23631633	-0.84580943	11.50409509	-0.11326340	2.92553278	10.98253230	-2.02659255	-0.64952887	10.73687302	-0.75956183	-1.31409182	7.83662538	-2.35075528	15.84811567	5.37230297	2.03250999	11.54181482
3964	39.63000000	9.02499743	2.81825887	5.55064367	8.29556895	-4.33240289	3.76169629	5.69833334	17.33661483	-1.37065873	11.96444566	-1.07991625	3.96668329	10.60472991	-2.21932623	-0.74194823	10.55521723	0.83400044	-0.95439415	7.58318449	-6.52376260	20.52997041	5.28913722	1.43465207	11.28896281
3965	39.64000000	9.37803706	2.53406123	5.64213189	8.94609339	-4.74848868	3.60080033	4.50265443	16.40514602	-3.62544947	12.58037366	-1.97613235	5.16825786	10.19460210	-2.01440625	-0.78134409	10.13596168	1.80566816	-0.83485175	-0.19062982	-6.44283648	16.44285377	5.02640932	1.81098795	11.48125230
3966	39.65000000	9.66711919	2.40271364	5.70216848	9.55995933	-4.55052789	3.54085280	2.98673471	10.56658883	-0.62578590	12.45928574	-3.10129340	5.35699156	10.09436334	-1.04240774	-0.80233484	9.67228622	1.65578984	-0.56590434	1.25345947	-7.59790510	14.81230672	4.94499545	2.39089610	11.30770103
3967	39.66000000	9.87779611	2.30358893	5.74413056	10.12609354	-3.97797141	3.38137634	1.69153135	4.62925454	2.74807118	11.19126175	-3.97486933	4.76698891	10.27718038	0.21108406	-0.70261310	9.37772140	0.69808799	-0.31992605	-0.36051536	-6.57076291	13.24289978	4.90399868	2.85913871	11.25958447
3968	39.67000000	9.89705905	2.11068017	5.85814107	10.60760985	-3.11085029	3.11293287	0.73672955	1.89518859	0.45884875	9.91494814	-3.73485723	4.23291854	10.20229786	0.49849701	-1.01265846	9.39121025	-0.01103645	-0.54339883	-4.91463702	-2.94284289	10.90423388	4.90614966	2.86366948	10.93025903
3969	39.68000000	9.85016732	1.86329525	5.88293649	10.67544936	-2.10453475	2.89235550	0.74923668	1.15650324	-0.80329611	9.17302205	-2.74939629	3.88532976	9.94612292	-0.21692988	-1.56005696	9.38186451	-0.16308890	-0.61660635	-4.38961170	-1.83054275	9.96772498	4.22105693	2.98087965	11.11138346
3970	39.69000000	9.78965304	1.47803812	5.95355372	10.60400153	-1.70991609	2.78994222	1.22875100	1.07934736	1.07825512	8.63930896	-1.88070185	3.78501090	9.90700674	-1.01593336	-1.76741705	9.61849281	0.48251937	-0.58358275	-4.17982645	-1.86726159	9.00007314	4.04311255	3.18529728	10.96113020
3971	39.70000000	9.61424251	1.25730102	6.08391310	10.39247778	-1.57348819	2.65390736	1.43209571	2.06017267	1.71784101	8.13844280	-1.21074217	3.80860289	9.92807326	-1.38377651	-1.25535314	9.90453288	1.29952839	-0.41185656	-2.84811681	-2.30944242	8.56485040	4.32698785	2.98746724	10.61190037
3972	39.71000000	9.10208636	1.36085402	5.91106058	9.78999346	-1.73386808	2.53480377	1.43734012	3.30169776	1.48838514	7.72825797	-0.71192360	3.95350404	9.71880136	-1.72577007	-0.88346505	9.81417124	1.86530924	-0.36957578	-0.72611328	-2.59229053	8.55797000	4.57992536	2.43878747	10.75350266
3973	39.72000000	8.49165714	1.57684449	5.86331289	9.05412230	-2.03495513	2.44421391	1.78729304	4.17027394	1.82715638	7.50195403	-0.59331150	4.10794784	9.60671980	-1.82379874	-0.56994088	9.61674898	1.85144924	-0.33831796	0.72359374	-2.45163263	8.65376783	4.69532860	2.10553721	10.91756067
3974	39.73000000	8.19807873	1.79689407	5.78739281	8.59333217	-2.32473983	2.39725798	2.49007184	5.16409279	1.62549482	7.50931698	-0.84792754	4.17610094	9.92151084	-1.34636087	-0.18707757	9.58795323	1.74670170	-0.33335778	1.77941101	-2.14537983	8.74515366	4.65742973	2.09424756	11.07280544
3975	39.74000000	8.32338185	2.24669630	5.79721609	8.39779100	-2.54267973	2.41784802	3.26539296	5.92185732	1.13120627	7.60798633	-1.18838889	4.21618612	9.81556350	-0.70559118	0.14539932	9.52601496	1.51847613	-0.15967979	2.74455501	-1.91913317	8.82232200	4.87177522	2.05088575	11.08990625
3976	39.75000000	8.54192672	2.52165229	5.81892253	8.46780606	-2.63837269	2.36224918	3.84841941	6.09410167	1.06492885	7.59732177	-1.28513296	4.32750483	9.77445334	-0.58248936	-0.03797248	9.63364430	1.24913793	-0.18501231	3.57440007	-1.55345301	8.96556876	5.03528735	1.99142514	10.94468587
3977	39.76000000	8.58228242	2.68492325	5.87650504	8.74664409	-2.67026257	2.37801521	4.19336431	5.67352303	1.18369846	7.44784144	-1.23481761	4.47206348	9.83507459	-0.93143548	-0.34602698	9.62273575	0.92062489	-0.23699964	4.51642432	-1.52111812	9.09883352	4.88986934	2.18093667	11.04668032
3978	39.77000000	8.37304638	2.82739327	6.08710569	8.97634403	-2.57941787	2.38243470	4.44810417	4.82867125	1.39495401	7.27702075	-0.91131541	4.58300138	9.79115147	-1.17744075	-0.32819423	9.76154924	0.83150124	-0.25698783	5.51256176	-1.74681012	9.16440494	4.64637780	2.18287233	11.12947133
3979	39.78000000	8.22791972	2.89917208	6.23933167	9.21036211	-2.68599338	2.34872331	4.68965018	4.32540689	1.49332320	7.05422806	-0.46914934	4.62416061	9.80115956	-1.24293735	-0.50440006	9.86847423	0.91289318	-0.21080911	6.45463318	-1.77116034	9.34339570	4.65110336	2.14047504	10.96365704
3980	39.79000000	8.20219117	2.90170800	6.27195085	9.34176857	-2.62925765	2.38301771	5.17121892	4.47598553	1.22744147	6.85422746	0.02040354	4.56359597	9.82920831	-1.18762185	-0.44240011	9.77379554	0.86506170	-0.12482375	7.22223906	-1.60135962	9.43743818	5.29150406	2.30797141	11.09175430
3981	39.80000000	8.17528993	2.76125455	6.14588162	9.28500062	-2.51118515	2.39557522	5.96665217	4.88185227	1.36888302	6.67179660	0.33720495	4.49336928	9.74358695	-1.08565345	-0.33966826	9.63385365	0.85573908	-0.00428468	8.00718340	-1.57169158	9.43919638	5.36712046	2.13336195	10.97531097
3982	39.81000000	8.21034365	2.65036707	6.15938238	9.04875842	-2.50627751	2.22910666	6.61985197	5.28214112	2.18708486	6.49282365	0.45784827	4.42365158	9.63261779	-1.37366765	-0.37546072	9.60535969	0.96066376	0.07760346	8.77863889	-1.88287138	9.33004452	4.90203256	2.16334890	10.97905100
3983	39.82000000	8.23804143	2.59931493	6.13201568	8.76182022	-2.51013258	2.12629710	7.66380774	6.07508833	2.78733004	6.35093754	0.53941039	4.29672078	9.52767877	-1.71716003	-0.41754267	9.73808924	1.02711556	0.10656293	10.28537914	-2.49532898	9.44670862	5.01059721	2.33787932	10.87749133
3984	39.83000000	8.24814210	2.60060680	6.03606986	8.56545550	-2.54713995	1.91208029	9.38272562	6.87314880	2.74554522	6.14258040	0.54205610	4.22329892	9.57272508	-1.57335472	-0.39165730	9.54439021	1.33970650	-0.00285290	12.97332403	-3.07410534	10.11608431	5.33704701	2.18096031	10.74719768
3985	39.84000000	8.17227397	2.61042399	6.01218450	8.49286683	-2.55837369	1.74492374	10.71745289	6.64283269	1.18955338	5.98991267	0.28386609	4.24229590	9.56984505	-1.64188579	-0.51218543	9.34145435	1.23921453	0.20359959	16.55649860	-3.61752606	10.54169158	5.28041617	2.07673813	10.61815615
